 HIERARCHY
ROOT Hips
{
   OFFSET 0.0 0.0 96.619003
   CHANNELS 6 Xposition Yposition Zposition Yrotation Xrotation Zrotation
   JOINT RightUpLeg
   {
      OFFSET -11.0 0.0 0.0
      CHANNELS 3 Yrotation Xrotation Zrotation
      JOINT RightLeg
      {
         OFFSET 0.0 -45.062 0.0
         CHANNELS 3 Yrotation Xrotation Zrotation
         JOINT RightFoot
         {
            OFFSET 0.0 -42.057999 0.0
            CHANNELS 3 Yrotation Xrotation Zrotation
              End Site
              {
                  OFFSET 0 0 0
              }
         }
      }
   }
   JOINT LeftUpLeg
   {
      OFFSET 11.0 0.0 0.0
      CHANNELS 3 Yrotation Xrotation Zrotation
      JOINT LeftLeg
      {
         OFFSET 0.0 -45.062 0.0
         CHANNELS 3 Yrotation Xrotation Zrotation
         JOINT LeftFoot
         {
            OFFSET 0.0 -42.057999 0.0
            CHANNELS 3 Yrotation Xrotation Zrotation
              End Site
              {
                  OFFSET 0 0 0
              }
         }
      }
   }
   JOINT Spine
   {
      OFFSET 0.0 8.12 0.0
      CHANNELS 3 Yrotation Xrotation Zrotation
      JOINT Spine1
      {
         OFFSET 0.0 17.98 0.0
         CHANNELS 3 Yrotation Xrotation Zrotation
         JOINT Spine2
         {
            OFFSET 0.0 12.76 0.0
            CHANNELS 3 Yrotation Xrotation Zrotation
            JOINT Neck
            {
               OFFSET 0.0 19.139999 0.0
               CHANNELS 3 Yrotation Xrotation Zrotation
               JOINT Neck1
               {
                  OFFSET 0.0 4.25 0.0
                  CHANNELS 3 Yrotation Xrotation Zrotation
                  JOINT Head
                  {
                     OFFSET 0.0 4.25 0.0
                     CHANNELS 3 Yrotation Xrotation Zrotation
                       End Site
                       {
                           OFFSET 0 0 0
                       }
                  }
               }
            }
            JOINT RightShoulder
            {
               OFFSET -2.9 13.34 0.0
               CHANNELS 3 Yrotation Xrotation Zrotation
               JOINT RightArm
               {
                  OFFSET -16.1 0.0 0.0
                  CHANNELS 3 Yrotation Xrotation Zrotation
                  JOINT RightForeArm
                  {
                     OFFSET -28.0 0.0 0.0
                     CHANNELS 3 Yrotation Xrotation Zrotation
                     JOINT RightHand
                     {
                        OFFSET -26.0 0.0 0.0
                        CHANNELS 3 Yrotation Xrotation Zrotation
                        JOINT RightHandThumb1
                        {
                           OFFSET -2.702 0.206 3.388
                           CHANNELS 3 Yrotation Xrotation Zrotation
                           JOINT RightHandThumb2
                           {
                              OFFSET -3.998 0.0 0.0
                              CHANNELS 3 Yrotation Xrotation Zrotation
                              JOINT RightHandThumb3
                              {
                                 OFFSET -2.778 0.0 0.0
                                 CHANNELS 3 Yrotation Xrotation Zrotation
                                   End Site
                                   {
                                       OFFSET 0 0 0
                                   }
                              }
                           }
                        }
                        JOINT RightHandIndex
                        {
                           OFFSET -3.5 0.552 2.148
                           CHANNELS 3 Yrotation Xrotation Zrotation
                           JOINT RightHandIndex1
                           {
                              OFFSET -5.664001 -0.099 1.085
                              CHANNELS 3 Yrotation Xrotation Zrotation
                              JOINT RightHandIndex2
                              {
                                 OFFSET -3.93 0.0 0.0
                                 CHANNELS 3 Yrotation Xrotation Zrotation
                                 JOINT RightHandIndex3
                                 {
                                    OFFSET -2.228 0.0 0.0
                                    CHANNELS 3 Yrotation Xrotation Zrotation
                                      End Site
                                      {
                                          OFFSET 0 0 0
                                      }
                                 }
                              }
                           }
                        }
                        JOINT RightHandMiddle
                        {
                           OFFSET -3.672 0.562 0.822
                           CHANNELS 3 Yrotation Xrotation Zrotation
                           JOINT RightHandMiddle1
                           {
                              OFFSET -5.618 -0.091 0.341
                              CHANNELS 3 Yrotation Xrotation Zrotation
                              JOINT RightHandMiddle2
                              {
                                 OFFSET -4.288001 0.0 0.0
                                 CHANNELS 3 Yrotation Xrotation Zrotation
                                 JOINT RightHandMiddle3
                                 {
                                    OFFSET -2.688 0.0 0.0
                                    CHANNELS 3 Yrotation Xrotation Zrotation
                                      End Site
                                      {
                                          OFFSET 0 0 0
                                      }
                                 }
                              }
                           }
                        }
                        JOINT RightHandRing
                        {
                           OFFSET -3.654001 0.584 -0.14
                           CHANNELS 3 Yrotation Xrotation Zrotation
                           JOINT RightHandRing1
                           {
                              OFFSET -5.032 -0.024 -0.52
                              CHANNELS 3 Yrotation Xrotation Zrotation
                              JOINT RightHandRing2
                              {
                                 OFFSET -3.737 0.0 0.0
                                 CHANNELS 3 Yrotation Xrotation Zrotation
                                 JOINT RightHandRing3
                                 {
                                    OFFSET -2.593 0.0 0.0
                                    CHANNELS 3 Yrotation Xrotation Zrotation
                                      End Site
                                      {
                                          OFFSET 0 0 0
                                      }
                                 }
                              }
                           }
                        }
                        JOINT RightHandPinky
                        {
                           OFFSET -3.432 0.51 -1.305
                           CHANNELS 3 Yrotation Xrotation Zrotation
                           JOINT RightHandPinky1
                           {
                              OFFSET -4.496 -0.024 -1.184
                              CHANNELS 3 Yrotation Xrotation Zrotation
                              JOINT RightHandPinky2
                              {
                                 OFFSET -2.993 0.0 0.0
                                 CHANNELS 3 Yrotation Xrotation Zrotation
                                 JOINT RightHandPinky3
                                 {
                                    OFFSET -1.891 0.0 0.0
                                    CHANNELS 3 Yrotation Xrotation Zrotation
                                      End Site
                                      {
                                          OFFSET 0 0 0
                                      }
                                 }
                              }
                           }
                        }
                     }
                  }
               }
            }
            JOINT LeftShoulder
            {
               OFFSET 2.9 13.34 0.0
               CHANNELS 3 Yrotation Xrotation Zrotation
               JOINT LeftArm
               {
                  OFFSET 16.1 0.0 0.0
                  CHANNELS 3 Yrotation Xrotation Zrotation
                  JOINT LeftForeArm
                  {
                     OFFSET 28.0 0.0 0.0
                     CHANNELS 3 Yrotation Xrotation Zrotation
                     JOINT LeftHand
                     {
                        OFFSET 26.0 0.0 0.0
                        CHANNELS 3 Yrotation Xrotation Zrotation
                        JOINT LeftHandThumb1
                        {
                           OFFSET 2.702 0.206 3.388
                           CHANNELS 3 Yrotation Xrotation Zrotation
                           JOINT LeftHandThumb2
                           {
                              OFFSET 3.998 0.0 0.0
                              CHANNELS 3 Yrotation Xrotation Zrotation
                              JOINT LeftHandThumb3
                              {
                                 OFFSET 2.778 0.0 0.0
                                 CHANNELS 3 Yrotation Xrotation Zrotation
                                   End Site
                                   {
                                       OFFSET 0 0 0
                                   }
                              }
                           }
                        }
                        JOINT LeftHandIndex
                        {
                           OFFSET 3.5 0.552 2.148
                           CHANNELS 3 Yrotation Xrotation Zrotation
                           JOINT LeftHandIndex1
                           {
                              OFFSET 5.664001 -0.099 1.085
                              CHANNELS 3 Yrotation Xrotation Zrotation
                              JOINT LeftHandIndex2
                              {
                                 OFFSET 3.93 0.0 0.0
                                 CHANNELS 3 Yrotation Xrotation Zrotation
                                 JOINT LeftHandIndex3
                                 {
                                    OFFSET 2.228 0.0 0.0
                                    CHANNELS 3 Yrotation Xrotation Zrotation
                                      End Site
                                      {
                                          OFFSET 0 0 0
                                      }
                                 }
                              }
                           }
                        }
                        JOINT LeftHandMiddle
                        {
                           OFFSET 3.672 0.562 0.822
                           CHANNELS 3 Yrotation Xrotation Zrotation
                           JOINT LeftHandMiddle1
                           {
                              OFFSET 5.618 -0.091 0.341
                              CHANNELS 3 Yrotation Xrotation Zrotation
                              JOINT LeftHandMiddle2
                              {
                                 OFFSET 4.288001 0.0 0.0
                                 CHANNELS 3 Yrotation Xrotation Zrotation
                                 JOINT LeftHandMiddle3
                                 {
                                    OFFSET 2.688 0.0 0.0
                                    CHANNELS 3 Yrotation Xrotation Zrotation
                                      End Site
                                      {
                                          OFFSET 0 0 0
                                      }
                                 }
                              }
                           }
                        }
                        JOINT LeftHandRing
                        {
                           OFFSET 3.654001 0.584 -0.14
                           CHANNELS 3 Yrotation Xrotation Zrotation
                           JOINT LeftHandRing1
                           {
                              OFFSET 5.032 -0.024 -0.52
                              CHANNELS 3 Yrotation Xrotation Zrotation
                              JOINT LeftHandRing2
                              {
                                 OFFSET 3.737 0.0 0.0
                                 CHANNELS 3 Yrotation Xrotation Zrotation
                                 JOINT LeftHandRing3
                                 {
                                    OFFSET 2.593 0.0 0.0
                                    CHANNELS 3 Yrotation Xrotation Zrotation
                                      End Site
                                      {
                                          OFFSET 0 0 0
                                      }
                                 }
                              }
                           }
                        }
                        JOINT LeftHandPinky
                        {
                           OFFSET 3.432 0.51 -1.305
                           CHANNELS 3 Yrotation Xrotation Zrotation
                           JOINT LeftHandPinky1
                           {
                              OFFSET 4.496 -0.024 -1.184
                              CHANNELS 3 Yrotation Xrotation Zrotation
                              JOINT LeftHandPinky2
                              {
                                 OFFSET 2.993 0.0 0.0
                                 CHANNELS 3 Yrotation Xrotation Zrotation
                                 JOINT LeftHandPinky3
                                 {
                                    OFFSET 1.891 0.0 0.0
                                    CHANNELS 3 Yrotation Xrotation Zrotation
                                      End Site
                                      {
                                          OFFSET 0 0 0
                                      }
                                 }
                              }
                           }
                        }
                     }
                  }
               }
            }
         }
      }
   }
}
MOTION
Frames: 6
Frame Time: 0.011111
-30.0402 99.5923 141.872 178.361 5.87428 3.16797 13.9579 -8.91842 0.0445303 0.0180288 6.51537 0.20609 172.241 -177.704 -179.363 0.973668 -8.35235 -6.03222 0.00552961 5.88861 1.13921 178.686 -174.588 179.569 180 179.687 179.972 180 -179.854 -179.993 0.108822 -0.00189833 0.99938 179.306 -179.673 178.41 179.306 -179.673 178.41 179.285 -179.663 178.361 175.11 179.4 -173.026 3.48272 -2.80848 77.7638 17.7902 58.8284 14.4559 1.6616 33.4387 -86.9823 90 80 57.5944 1.51976e-06 -2.19695e-06 31.1876 2.98985e-06 1.86639e-06 10.5938 6.83019e-06 -0 -0 180 -180 180 6.83019e-06 -0 -0 180 -180 180 6.83019e-06 -0 -0 180 -180 180 6.83019e-06 -0 -0 180 -180 180 6.83019e-06 -0 -0 180 -180 180 6.83019e-06 -0 -0 180 -180 180 6.83019e-06 -0 -0 180 -180 180 6.83019e-06 -0 -0 180 -180 180 4.96292 0.608585 -6.97363 2.36858 2.00239 -80.3954 158.971 126.692 167.663 1.59471 49.2413 91.6894 115.205 141.399 146.156 180 -180 95.875 7.44423e-07 -5.97491e-07 -49.3672 180 180 180 175 -180 91 1.203e-05 -2.16993e-06 -110 1.51852e-06 3.50324e-06 -80 180 180 180 1.45113 -2.40124e-06 -67.7444 180 -180 112.256 0 -0 -50.8083 180 180 180 5 2.13443e-07 -89 180 -180 76.0938 180 180 102.07 180 180 180 10 5.97642e-06 -89 180 -180 70 180 -180 100 
-30.0286 99.5974 141.842 178.391 5.8957 3.09751 13.9169 -8.94225 0.111074 0.0195219 6.52181 0.232749 172.243 -177.701 -179.374 0.930544 -8.36747 -5.95502 0.00585928 5.89799 1.14542 178.692 -174.576 179.563 0.000327936 0.263711 0.0484007 7.36464e-06 -0.12562 -0.0241807 0.108829 -0.00193389 1.01804 179.29 -179.671 178.413 179.29 -179.671 178.413 179.268 -179.661 178.364 175.102 179.399 -173.026 3.45464 -2.78578 77.7196 17.8557 58.8487 14.5284 1.64707 33.4344 -87.0083 90 80 57.5944 3.86542e-06 -6.3972e-06 31.1876 180 -180 -169.406 4.07111e-13 6.83019e-06 6.83019e-06 4.07111e-13 -6.83019e-06 -6.83019e-06 4.07111e-13 6.83019e-06 6.83019e-06 4.07111e-13 -6.83019e-06 -6.83019e-06 4.07111e-13 6.83019e-06 6.83019e-06 4.07111e-13 -6.83019e-06 -6.83019e-06 4.07111e-13 6.83019e-06 6.83019e-06 4.07111e-13 -6.83019e-06 -6.83019e-06 4.07111e-13 6.83019e-06 6.83019e-06 4.07111e-13 -6.83019e-06 -6.83019e-06 4.07111e-13 6.83019e-06 6.83019e-06 4.07111e-13 -6.83019e-06 -6.83019e-06 4.07111e-13 6.83019e-06 6.83019e-06 4.07111e-13 -6.83019e-06 -6.83019e-06 4.07111e-13 6.83019e-06 6.83019e-06 4.07111e-13 -6.83019e-06 -6.83019e-06 4.96292 0.608585 -6.97363 2.3379 1.97639 -80.4429 159.068 126.702 167.73 1.597 49.2468 91.6918 115.205 141.399 146.156 7.72698e-07 -8.5027e-06 -84.125 180 180 130.633 180 180 -180 175 -180 91 1.02461e-05 -5.08984e-06 -110 0 -0 -80 180 180 -180 1.45113 -5.28272e-06 -67.7444 180 180 112.256 4.54995e-06 -1.61979e-06 -50.8083 180 180 -180 5.00001 -5.33608e-06 -89 180 -180 76.0938 180 180 102.07 180 180 -180 10 2.13443e-06 -89 180 180 70 7.42741e-06 1.77425e-06 -80 
-30.0171 99.6027 141.813 178.41 5.8843 3.13348 13.9085 -8.90759 0.0820759 0.019562 6.53703 0.257347 172.232 -177.697 -179.388 0.910983 -8.33507 -5.98741 0.00652468 5.89814 1.15292 178.699 -174.568 179.559 180 179.722 179.969 180 -179.888 -179.988 0.109115 -0.00194243 1.01985 179.276 -179.663 178.415 179.276 -179.663 178.415 179.254 -179.652 178.367 175.097 179.399 -173.026 3.4406 -2.77336 77.7181 17.8968 58.8387 14.5564 1.63522 33.4278 -87.0292 90 80 57.5944 8.58325e-06 -2.39548e-06 31.1876 180 -180 -169.406 0 -0 -0 0 -0 -0 0 -0 -0 0 -0 -0 0 -0 -0 0 -0 -0 0 -0 -0 0 -0 -0 0 -0 -0 0 -0 -0 0 -0 -0 0 -0 -0 0 -0 -0 0 -0 -0 0 -0 -0 0 -0 -0 4.96292 0.608585 -6.97363 2.31011 1.95413 -80.4482 159.109 126.694 167.763 1.59816 49.2615 91.6928 115.205 141.399 146.156 180 -180 95.875 180 -180 130.633 7.63333e-14 -1.70755e-06 -5.12264e-06 175 180 91 180 -180 70 180 -180 100 7.63333e-14 -1.70755e-06 -5.12264e-06 1.45113 -4.42895e-06 -67.7444 5.61101e-06 -6.03754e-07 -67.7443 3.89477e-06 3.74005e-06 -50.8083 7.63333e-14 -1.70755e-06 -5.12264e-06 5.00001 -3.20165e-06 -89 9.20841e-07 -5.05725e-06 -103.906 3.22134e-06 -3.98302e-06 -77.9296 7.63333e-14 -1.70755e-06 -5.12264e-06 10 3.84198e-06 -89 0 -0 -110 9.69729e-07 4.15727e-06 -80 
-30.0102 99.6018 141.79 178.417 5.89179 3.16705 13.9277 -8.9004 0.0444912 0.0193042 6.53353 0.270341 172.22 -177.708 -179.387 0.89855 -8.33994 -6.0141 0.00630273 5.90614 1.15396 178.709 -174.557 179.552 180 179.738 179.906 180 -179.887 -179.942 0.108979 -0.00190787 1.00296 179.265 -179.662 178.416 179.265 -179.662 178.416 179.242 -179.651 178.368 175.095 179.398 -173.026 3.43434 -2.76739 77.7163 17.9057 58.8364 14.5796 1.62464 33.4207 -87.0478 90 80 57.5944 8.57041e-06 -2.3919e-06 31.1876 180 -180 -169.406 0 6.83019e-06 0 0 -6.83019e-06 -0 0 6.83019e-06 0 0 -6.83019e-06 -0 0 6.83019e-06 0 0 -6.83019e-06 -0 0 6.83019e-06 0 0 -6.83019e-06 -0 0 6.83019e-06 0 0 -6.83019e-06 -0 0 6.83019e-06 0 0 -6.83019e-06 -0 0 6.83019e-06 0 0 -6.83019e-06 -0 0 6.83019e-06 0 0 -6.83019e-06 -0 4.96292 0.608585 -6.97363 2.31681 1.95977 -80.4931 159.153 126.706 167.812 1.59994 49.2775 91.6946 115.205 141.399 146.156 180 -180 95.875 180 -180 130.633 1.70755e-06 -3.41509e-06 -6.83019e-06 175 180 91 9.37113e-06 -9.68853e-06 -110 180 -180 100 1.70755e-06 -3.41509e-06 -6.83019e-06 1.45113 -4.32223e-06 -67.7444 1.63235e-06 -1.37858e-06 -67.7444 180 180 129.192 1.70755e-06 -3.41509e-06 -6.83019e-06 5 6.4033e-07 -89 180 -180 76.0938 5.65993e-07 -6.13058e-06 -77.9296 1.70755e-06 -3.41509e-06 -6.83019e-06 10 8.53774e-07 -89 3.84654e-06 -2.69337e-06 -110 180 -180 100 
-30.0045 99.5993 141.771 178.417 5.86144 3.05025 13.9174 -8.88011 0.170221 0.0189685 6.51696 0.276487 172.215 -177.727 -179.389 0.867801 -8.30858 -5.89645 0.00681248 5.92097 1.16066 178.722 -174.545 179.549 0.000535395 0.316023 0.0907061 2.17005e-05 -0.139308 -0.0431329 0.108876 -0.00196619 1.03459 179.252 -179.66 178.42 179.252 -179.66 178.42 179.229 -179.65 178.371 175.094 179.398 -173.026 3.43364 -2.76571 77.7135 17.9153 58.8316 14.6025 1.61475 33.4133 -87.0652 90 80 57.5944 8.11139e-06 -4.03659e-06 31.1876 180 180 -169.406 180 180 180 180 -180 -180 180 180 180 180 -180 -180 180 180 180 180 -180 -180 180 180 180 180 -180 -180 180 180 180 180 -180 -180 180 180 180 180 -180 -180 180 180 180 180 -180 -180 180 180 180 180 -180 -180 4.96292 0.608585 -6.97363 2.32829 1.97058 -80.4954 159.157 126.682 167.828 1.6004 49.2856 91.695 115.205 141.399 146.156 180 180 95.875 2.31752e-06 -5.04245e-06 -49.3672 0 -0 3.4151e-06 175 -180 91 1.203e-05 -2.16993e-06 -110 1.51852e-06 3.50324e-06 -80 0 -0 3.4151e-06 1.45113 -2.40124e-06 -67.7444 180 -180 112.256 0 -0 -50.8083 0 -0 3.4151e-06 5 2.13443e-07 -89 180 -180 76.0938 180 180 102.07 0 -0 3.4151e-06 10 5.97642e-06 -89 180 -180 70 180 -180 100 
-30.0121 99.5975 141.776 178.426 5.92676 3.13924 14.157 -8.89044 0.0556063 0.0096927 6.45788 0.251699 171.998 -177.788 -179.361 0.868419 -8.38887 -6.00218 0.00908611 5.95399 1.1798 178.734 -174.542 179.549 180 179.721 179.973 180 -179.868 -179.985 0.108672 -0.00190159 1.00248 179.233 -179.649 178.426 179.233 -179.649 178.426 179.209 -179.638 178.378 175.1 179.399 -173.026 3.4552 -2.78234 77.7096 17.9195 58.8031 14.6053 1.60594 33.4062 -87.0806 89.9999 80 57.5943 180 -180 -148.812 6.40226e-06 1.28207e-06 10.5938 3.41509e-06 3.41509e-06 -1.02453e-05 3.41509e-06 3.41509e-06 3.41509e-06 3.41509e-06 3.41509e-06 3.41509e-06 3.41509e-06 3.41509e-06 3.41509e-06 3.41509e-06 3.41509e-06 -1.02453e-05 3.41509e-06 3.41509e-06 3.41509e-06 3.41509e-06 3.41509e-06 3.41509e-06 3.41509e-06 3.41509e-06 3.41509e-06 3.41509e-06 3.41509e-06 -1.02453e-05 3.41509e-06 3.41509e-06 3.41509e-06 3.41509e-06 3.41509e-06 3.41509e-06 3.41509e-06 3.41509e-06 3.41509e-06 3.41509e-06 3.41509e-06 -1.02453e-05 3.41509e-06 3.41509e-06 3.41509e-06 3.41509e-06 3.41509e-06 3.41509e-06 3.41509e-06 3.41509e-06 3.41509e-06 4.96292 0.608585 -6.97363 2.30978 1.95583 -80.4991 159.158 126.68 167.85 1.60105 49.2828 91.6957 115.205 141.399 146.156 180 -180 95.875 3.49093e-06 1.60444e-06 -49.3672 180 180 180 175 180 91 180 -180 70 180 -180 100 180 180 180 1.45113 -4.42895e-06 -67.7444 5.61101e-06 -6.03754e-07 -67.7443 3.89477e-06 3.74005e-06 -50.8083 180 180 180 5.00001 -3.20165e-06 -89 9.20841e-07 -5.05725e-06 -103.906 3.22134e-06 -3.98302e-06 -77.9296 180 180 180 10 3.84198e-06 -89 0 -0 -110 9.69729e-07 4.15727e-06 -80 
